Coordinates
version=1
nRows=13
nColumns=40
inDegrees=yes

Units are S.I. units (second, meters, Newtons, ...)
Angles are in degrees.

endheader
time	pelvis_tilt	pelvis_list	pelvis_rotation	pelvis_tx	pelvis_ty	pelvis_tz	hip_flexion_r	hip_adduction_r	hip_rotation_r	knee_angle_r	knee_angle_r_beta	ankle_angle_r	subtalar_angle_r	mtp_angle_r	hip_flexion_l	hip_adduction_l	hip_rotation_l	knee_angle_l	knee_angle_l_beta	ankle_angle_l	subtalar_angle_l	mtp_angle_l	lumbar_extension	lumbar_bending	lumbar_rotation	arm_flex_r	arm_add_r	arm_rot_r	elbow_flex_r	pro_sup_r	wrist_flex_r	wrist_dev_r	arm_flex_l	arm_add_l	arm_rot_l	elbow_flex_l	pro_sup_l	wrist_flex_l	wrist_dev_l
     25.90250000	     -3.91174978	     -3.09430026	      2.80441713	      0.86287884	      0.92185142	      0.45844156	      0.75120358	     -1.87638721	    -14.52867231	     26.20194313	     26.20194313	     17.87329162	     -1.54674710	     -5.82026284	     25.80746306	     -3.36227266	     -1.07680220	     25.95723825	     25.95723825	      7.29795119	    -14.75811681	      4.28247669	     -8.09064439	      5.52191073	      3.90482447	     22.01964822	    -19.09267247	     -0.35247345	     87.32868625	     44.79572260	      0.00000000	      0.00000000	     -4.31554759	     -8.84425523	     -2.96578582	     36.45048994	     45.89537415	      0.00000000	      0.00000000
     25.91542857	     -3.94783857	     -2.99639575	      2.61281630	      0.86365025	      0.92284715	      0.45543192	      1.77132584	     -2.59112943	    -14.19120669	     28.80116833	     28.80116833	     16.74555121	     -2.56506540	     -7.22997320	     25.15513260	     -3.12665335	     -1.26534045	     25.75027256	     25.75027256	      7.80446570	    -14.71308331	      4.32628545	     -7.97982039	      5.41299683	      3.98089662	     20.01092481	    -19.09981074	     -0.60307786	     85.46703840	     44.86061113	      0.00000000	      0.00000000	     -3.76894393	     -8.90942653	     -3.61226994	     37.50594550	     45.98544788	      0.00000000	      0.00000000
     25.92835714	     -3.90800077	     -2.97225363	      2.47455099	      0.86443219	      0.92379539	      0.45247049	      2.58832073	     -3.10755849	    -13.71027957	     30.85090584	     30.85090584	     13.09143937	     -5.33286328	    -14.93429794	     24.47454844	     -2.96760300	     -1.41908456	     25.63256326	     25.63256326	      8.46873075	    -14.54938499	      4.66691402	     -7.92847029	      5.38958216	      3.36378112	     18.70581448	    -18.27116360	     -1.00924208	     82.33711235	     45.00240061	      0.00000000	      0.00000000	     -4.17631914	     -8.70263837	     -6.68025582	     40.37951939	     46.33549101	      0.00000000	      0.00000000
     25.94128571	     -3.88117187	     -2.82346498	      2.28857084	      0.86500372	      0.92460436	      0.44954577	      3.95423999	     -3.93637046	    -13.34051198	     34.13244280	     34.13244280	     11.86060104	     -6.55887188	    -15.38685382	     23.73075037	     -2.70427660	     -1.72951629	     25.36028850	     25.36028850	      8.88278815	    -14.36160254	      4.45484705	     -7.92921678	      5.26919676	      3.38646213	     16.67414245	    -18.28970523	     -0.90901187	     80.73509689	     45.04502053	      0.00000000	      0.00000000	     -3.47812308	     -8.91033377	     -6.86556321	     41.15119078	     46.36727634	      0.00000000	      0.00000000
     25.95421429	     -3.92001909	     -2.81953362	      2.09761551	      0.86536070	      0.92514334	      0.44686868	      5.49167321	     -4.44614764	    -12.62687595	     37.31914444	     37.31914444	      9.47589955	     -9.14604483	    -17.76241686	     23.11542636	     -2.60893610	     -1.99781419	     25.12482787	     25.12482787	      9.11359067	    -14.22997867	      3.75610398	     -7.84124384	      5.26593416	      3.16573218	     15.29787882	    -17.59039649	     -1.76338644	     77.16691414	     45.19543760	      0.00000000	      0.00000000	     -3.69440977	     -9.27288355	     -7.11702335	     44.03524610	     46.40140041	      0.00000000	      0.00000000
     25.96714286	     -3.87264329	     -2.60157323	      1.93695793	      0.86554795	      0.92564976	      0.44397385	      7.14850527	     -5.34412569	    -12.20915815	     40.94745217	     40.94745217	      7.82344907	    -10.55021131	    -17.79045528	     22.42307091	     -2.27960948	     -2.37073967	     24.92174360	     24.92174360	      9.44734533	    -13.97682089	      3.52643664	     -7.95598480	      5.16640264	      3.16399818	     13.26428079	    -17.58214807	     -1.56800975	     75.59195667	     45.23265956	      0.00000000	      0.00000000	     -2.94321577	     -9.56073378	     -7.26133607	     44.87234286	     46.43039168	      0.00000000	      0.00000000
     25.98007143	     -3.90413528	     -2.62941077	      1.73034411	      0.86559305	      0.92585429	      0.44164648	      9.01087172	     -5.71253648	    -11.36714791	     44.52444404	     44.52444404	      5.84810189	    -12.80335880	    -17.41951959	     21.85857127	     -2.27123023	     -2.73731269	     24.75681328	     24.75681328	      9.81516918	    -13.65473514	      2.64437509	     -7.89691683	      5.09792827	      2.99208742	     12.06860602	    -16.89447595	     -2.33504038	     71.54742635	     45.38761093	      0.00000000	      0.00000000	     -3.10672324	    -10.07330780	     -7.02471300	     47.87235285	     46.43197843	      0.00000000	      0.00000000
     25.99300000	     -3.76690823	     -2.45911183	      1.63069717	      0.86548689	      0.92620393	      0.43909350	     10.69896937	     -6.45953046	    -10.95410489	     48.07356877	     48.07356877	      4.02228608	    -14.00251514	    -16.95646776	     21.13716862	     -2.00015843	     -3.03959791	     24.61224875	     24.61224875	     10.21593855	    -13.41010974	      2.38068953	     -8.19942008	      4.94062938	      2.84215950	     10.13948808	    -16.78717998	     -2.10646686	     70.07966000	     45.41952134	      0.00000000	      0.00000000	     -2.26437385	    -10.43642647	     -7.16299100	     48.67603545	     46.46168046	      0.00000000	      0.00000000
     26.00592857	     -3.80997159	     -2.43406879	      1.35555627	      0.86521713	      0.92622915	      0.43709085	     12.79777081	     -6.72749707	     -9.97760201	     51.72348212	     51.72348212	      3.17097751	    -15.19014040	    -13.11085124	     20.63013925	     -2.02161097	     -3.66860105	     24.49861767	     24.49861767	     10.54490184	    -12.78584607	      1.35936196	     -8.13257378	      4.92140740	      2.71633078	      9.35677359	    -16.03063236	     -2.82936619	     65.00847356	     45.60365933	      0.00000000	      0.00000000	     -2.42147601	    -11.11935988	     -6.64083325	     51.84071534	     46.45347669	      0.00000000	      0.00000000
     26.01885714	     -3.71116255	     -2.20753351	      1.22075293	      0.86488947	      0.92643413	      0.43482820	     14.55132554	     -7.35523886	     -9.43243933	     54.84962774	     54.84962774	      1.56700501	    -16.17298285	    -12.29837911	     19.96650539	     -1.70613643	     -3.99841536	     24.35837389	     24.35837389	     10.94393833	    -12.55186454	      1.10494066	     -8.36175237	      4.71784387	      2.66837907	      7.43793532	    -15.92019097	     -2.55185167	     63.49222638	     45.63425923	      0.00000000	      0.00000000	     -1.46525468	    -11.51936825	     -6.83297689	     52.67471531	     46.49008022	      0.00000000	      0.00000000
     26.03178571	     -3.68657026	     -2.27627530	      0.99112438	      0.86444852	      0.92664908	      0.43316651	     16.54918378	     -7.37693629	     -8.61068454	     58.02916858	     58.02916858	      1.97265107	    -16.15475363	     -6.01515410	     19.39760006	     -1.84786695	     -4.63435694	     24.22354776	     24.22354776	     11.29724176	    -11.79324091	      0.19441404	     -8.43387289	      4.77196258	      2.43448109	      7.08084918	    -15.19056346	     -2.88866880	     57.84581516	     45.81909863	      0.00000000	      0.00000000	     -1.45126311	    -12.20999325	     -6.28093857	     55.33250243	     46.49207171	      0.00000000	      0.00000000
     26.04471429	     -3.59429960	     -2.12906005	      0.81632274	      0.86400165	      0.92698545	      0.43131875	     18.19203281	     -7.70549233	     -8.01658620	     60.40392546	     60.40392546	      0.88310290	    -16.77841203	     -5.38373272	     18.71737808	     -1.63515387	     -4.96321653	     24.01277977	     24.01277977	     11.63618099	    -11.56267304	      0.02552729	     -8.64164036	      4.68234596	      2.49542802	      5.19291183	    -15.10750004	     -2.60455916	     56.33798624	     45.84779327	      0.00000000	      0.00000000	     -0.43970066	    -12.54524215	     -6.53909363	     56.16247047	     46.53514158	      0.00000000	      0.00000000
     26.05764286	     -3.52727105	     -2.23498721	      0.60333420	      0.86354175	      0.92745917	      0.42999630	     19.88580171	     -7.55055255	     -7.36392145	     62.57139763	     62.57139763	      1.38811826	    -16.64562477	     -0.89902225	     18.06814036	     -1.81995460	     -5.56374481	     23.81329497	     23.81329497	     12.04939847	    -10.74538680	     -0.62593332	     -8.80248022	      4.74179076	      2.32303635	      4.92838242	    -14.53443595	     -2.57402271	     50.70519981	     46.01710390	      0.00000000	      0.00000000	     -0.05529061	    -13.12072506	     -6.17892956	     58.13353588	     46.55760634	      0.00000000	      0.00000000
